<?xml version="1.0" standalone="no"?>
<!DOCTYPE svg PUBLIC "-//W3C//DTD SVG 20010904//EN"
 "http://www.w3.org/TR/2001/REC-SVG-20010904/DTD/svg10.dtd">
<svg version="1.0" xmlns="http://www.w3.org/2000/svg"
 width="270.000000pt" height="270.000000pt" viewBox="0 0 270.000000 270.000000"
 preserveAspectRatio="xMidYMid meet">
<metadata>
Created by potrace 1.16, written by Peter Selinger 2001-2019
</metadata>
<g transform="translate(0.000000,270.000000) scale(0.100000,-0.100000)"
fill="#000000" stroke="none">
<path d="M1240 1899 c-42 -13 -93 -59 -125 -114 -13 -22 -57 -122 -99 -223
-57 -139 -89 -202 -135 -265 -61 -84 -115 -192 -107 -212 4 -11 123 -52 130
-44 2 2 72 119 157 259 84 140 163 272 177 294 l24 38 22 -21 c12 -12 25 -21
28 -21 3 0 38 38 77 84 l72 84 -22 47 c-36 77 -120 117 -199 94z"/>
<path d="M1456 1518 c-9 -13 -14 -17 -10 -9 4 7 -18 -2 -47 -21 -50 -32 -54
-38 -57 -76 -2 -25 1 -42 7 -42 6 0 12 -12 12 -27 1 -23 2 -24 6 -6 4 22 33
53 33 36 0 -20 40 -5 68 25 17 18 46 39 65 47 29 12 34 18 30 39 -3 14 -9 23
-14 20 -5 -3 -7 -10 -4 -15 15 -23 -14 -6 -33 21 -27 36 -34 37 -56 8z"/>
<path d="M1363 883 c-25 -5 -73 -57 -73 -79 0 -11 22 -14 113 -14 61 0 118 4
125 8 9 6 10 19 4 48 l-8 39 -69 1 c-39 1 -80 0 -92 -3z"/>
<path d="M402 544 c-20 -13 -22 -24 -22 -95 0 -64 3 -79 15 -79 12 0 15 13 15
55 0 78 27 105 105 105 55 0 93 -12 107 -34 4 -6 8 -44 8 -84 0 -60 -3 -75
-20 -89 -27 -23 -25 -43 3 -43 41 0 47 17 47 136 0 142 -2 144 -140 144 -70 0
-101 -4 -118 -16z"/>
</g>
</svg>
