<?xml version="1.0" standalone="no"?>
<!DOCTYPE svg PUBLIC "-//W3C//DTD SVG 20010904//EN"
 "http://www.w3.org/TR/2001/REC-SVG-20010904/DTD/svg10.dtd">
<svg version="1.0" xmlns="http://www.w3.org/2000/svg"
 width="50.000000pt" height="50.000000pt" viewBox="0 0 50.000000 50.000000"
 preserveAspectRatio="xMidYMid meet">
<metadata>
Created by potrace 1.16, written by Peter Selinger 2001-2019
</metadata>
<g transform="translate(0.000000,50.000000) scale(0.100000,-0.100000)"
fill="#000000" stroke="none">
<path d="M154 406 c-28 -28 -34 -42 -34 -75 0 -78 41 -121 114 -121 33 0 86
32 86 51 0 6 -12 1 -26 -10 -15 -12 -34 -21 -44 -21 -29 0 -67 37 -74 72 -22
109 68 172 123 86 l21 -33 0 43 c0 23 -4 42 -10 42 -5 0 -10 -5 -10 -10 0 -7
-6 -7 -19 0 -41 21 -91 12 -127 -24z"/>
<path d="M82 155 c0 -16 2 -22 5 -12 2 9 2 23 0 30 -3 6 -5 -1 -5 -18z"/>
<path d="M133 147 c0 -8 6 -14 14 -14 15 0 12 19 -3 24 -6 2 -11 -3 -11 -10z"/>
<path d="M171 144 c0 -11 3 -14 6 -6 3 7 2 16 -1 19 -3 4 -6 -2 -5 -13z"/>
<path d="M191 144 c0 -11 3 -14 6 -6 3 7 2 16 -1 19 -3 4 -6 -2 -5 -13z"/>
<path d="M230 149 c0 -5 -4 -8 -8 -5 -4 2 -8 -3 -9 -13 -1 -10 6 -17 18 -17
10 0 19 4 19 8 0 4 -4 8 -10 8 -5 0 -7 7 -4 15 4 8 3 15 0 15 -3 0 -6 -5 -6
-11z"/>
<path d="M261 144 c0 -11 3 -14 6 -6 3 7 2 16 -1 19 -3 4 -6 -2 -5 -13z"/>
<path d="M281 144 c0 -11 3 -14 6 -6 3 7 2 16 -1 19 -3 4 -6 -2 -5 -13z"/>
<path d="M321 144 c0 -11 3 -14 6 -6 3 7 2 16 -1 19 -3 4 -6 -2 -5 -13z"/>
<path d="M349 158 c-8 -25 -3 -44 13 -44 12 0 17 5 13 14 -3 7 -5 18 -5 23 0
8 -18 14 -21 7z"/>
<path d="M400 150 c-8 -5 -12 -11 -9 -14 2 -3 11 -1 19 4 8 5 12 11 9 14 -2 3
-11 1 -19 -4z"/>
</g>
</svg>
