<?xml version="1.0" standalone="no"?>
<!DOCTYPE svg PUBLIC "-//W3C//DTD SVG 20010904//EN"
 "http://www.w3.org/TR/2001/REC-SVG-20010904/DTD/svg10.dtd">
<svg version="1.0" xmlns="http://www.w3.org/2000/svg"
 width="288.000000pt" height="288.000000pt" viewBox="0 0 288.000000 288.000000"
 preserveAspectRatio="xMidYMid meet">

<g transform="translate(0.000000,288.000000) scale(0.100000,-0.100000)"
fill="#000000" stroke="none">
<path d="M1991 2265 c-57 -56 -97 -83 -107 -72 -4 3 1 24 9 46 l16 39 -50 -34
c-48 -32 -89 -44 -89 -26 0 5 7 23 16 41 21 42 11 51 -24 19 -56 -52 -129 -67
-139 -27 -4 14 -10 18 -22 13 -9 -4 -30 -9 -47 -11 -26 -4 -32 -1 -37 18 l-6
24 -34 -33 c-40 -39 -47 -40 -47 -5 l0 27 -33 -32 c-42 -40 -67 -42 -67 -4
l-1 27 -22 -27 c-27 -33 -43 -35 -52 -8 -9 28 -20 25 -42 -11 -16 -28 -29 -34
-128 -60 -293 -76 -564 -225 -837 -462 -110 -95 -175 -167 -151 -167 11 0 108
59 163 99 23 17 47 31 52 31 5 0 40 26 79 58 38 33 86 67 106 78 46 23 59 34
67 59 3 11 27 34 53 52 50 34 229 117 276 128 29 8 36 -5 13 -25 -20 -16 -13
-213 8 -265 13 -30 14 -44 3 -83 -6 -26 -15 -50 -19 -53 -5 -3 8 -24 28 -47
30 -36 38 -40 55 -31 16 8 28 6 55 -10 22 -14 53 -21 83 -21 29 0 70 -9 102
-24 85 -37 127 -41 208 -16 113 33 198 73 193 89 -3 9 0 12 10 8 19 -7 100 74
123 123 8 19 25 53 37 75 24 47 41 163 32 220 -7 40 -33 86 -69 117 -20 17
-20 17 3 18 63 1 315 -81 433 -140 47 -24 57 -34 67 -68 21 -71 16 -134 -17
-178 -108 -148 -301 -271 -521 -330 -122 -33 -213 -46 -370 -51 -140 -4 -183
-2 -280 16 -160 28 -308 67 -325 85 -20 19 -56 30 -64 20 -8 -12 -504 -12
-558 0 -68 14 -56 -15 19 -49 59 -27 73 -28 268 -36 113 -4 206 -8 208 -8 11
-4 -5 -37 -38 -77 -64 -78 -50 -98 29 -40 55 40 144 86 166 86 18 0 14 -22
-11 -72 -14 -28 -19 -68 -8 -68 3 0 15 12 27 26 51 65 166 107 195 71 13 -15
-17 -89 -50 -124 -12 -13 -18 -26 -15 -30 11 -10 49 11 101 56 26 23 56 41 67
41 16 0 19 -7 19 -55 0 -30 4 -55 8 -55 4 0 17 16 29 36 35 62 34 22 -4 -82
-66 -185 -56 -204 30 -51 76 135 128 211 149 215 21 4 53 -56 72 -136 l14 -57
1 97 c1 95 2 98 25 104 37 9 59 1 73 -26 16 -31 17 -156 2 -234 -11 -62 -6
-97 12 -79 17 17 59 203 59 261 l0 53 35 -28 c44 -35 93 -131 101 -198 8 -76
13 -95 26 -95 19 0 0 116 -37 226 -19 56 -35 107 -35 113 0 26 32 7 80 -46 39
-44 50 -52 45 -33 -4 14 -9 51 -12 83 -5 56 -5 57 21 57 38 0 87 -23 112 -52
28 -33 60 -119 69 -185 9 -66 25 -79 25 -21 0 52 -20 130 -56 221 -53 131 14
113 147 -39 45 -52 84 -94 86 -94 2 0 -26 56 -62 125 -36 69 -65 134 -65 145
0 29 29 25 70 -10 42 -37 69 -41 46 -8 -9 12 -16 28 -16 35 0 31 35 7 124 -84
52 -54 98 -94 102 -90 4 4 -2 17 -13 30 -46 52 -133 187 -133 207 0 23 -1 23
68 4 34 -10 27 11 -18 52 -22 21 -40 42 -40 47 0 16 101 -2 159 -29 30 -13 56
-22 59 -20 2 3 -8 20 -23 38 -16 18 -23 34 -16 36 13 4 110 -50 151 -85 17
-13 35 -23 42 -21 8 3 7 8 -3 16 -8 7 -42 35 -76 63 -34 29 -70 63 -79 77
l-16 25 56 -6 c67 -7 79 5 34 33 -18 11 -33 25 -34 32 0 7 -2 20 -2 30 -1 9
-16 25 -32 35 l-31 20 74 21 c91 27 180 84 247 160 56 64 69 104 18 55 -50
-47 -129 -93 -160 -93 -35 0 -35 10 -2 41 31 29 106 140 100 147 -5 4 -96 -58
-123 -85 -28 -26 -122 -64 -152 -61 l-32 3 42 55 c23 30 57 87 75 125 l34 70
-42 -50 c-78 -91 -141 -150 -145 -138 -3 7 4 25 15 40 29 42 64 114 58 120 -3
3 -35 -25 -72 -63 -37 -38 -69 -64 -71 -57 -2 6 10 37 28 68 17 31 29 58 26
62 -3 3 -44 -34 -92 -81 -77 -77 -125 -109 -142 -93 -3 4 15 39 41 78 25 40
46 77 46 82 0 6 -31 -20 -69 -56 -82 -79 -136 -93 -100 -25 14 26 6 33 -21 18
-33 -18 -36 -5 -8 37 55 85 60 93 52 92 -5 0 -34 -24 -63 -54z"/>
<path d="M2047 936 c-8 -8 -18 -39 -21 -69 l-7 -55 -55 -4 c-33 -3 -66 -13
-82 -24 -67 -49 -97 -193 -51 -243 18 -19 29 -22 61 -18 22 3 50 15 62 26 28
26 36 26 36 2 0 -26 14 -34 50 -26 27 6 30 11 30 44 0 20 11 105 25 189 32
195 32 192 -4 192 -16 0 -36 -7 -44 -14z"/>
<path d="M272 793 c-127 -62 -133 -273 -7 -273 47 0 101 23 115 50 16 30 -2
50 -30 32 -11 -6 -33 -12 -50 -12 -35 0 -46 28 -36 86 10 50 38 74 85 74 32 0
41 4 46 21 5 14 2 25 -6 30 -22 14 -81 10 -117 -8z"/>
<path d="M546 796 c-57 -21 -95 -63 -112 -124 -18 -59 -13 -105 13 -134 22
-25 58 -23 110 7 42 25 43 25 43 5 0 -24 21 -34 54 -26 21 5 24 14 40 137 10
72 15 133 13 136 -13 13 -125 12 -161 -1z"/>
<path d="M815 801 c-46 -19 -73 -80 -52 -117 7 -12 27 -34 45 -49 17 -15 32
-31 32 -36 0 -5 -25 -9 -55 -9 -52 0 -55 -1 -55 -25 0 -29 30 -45 87 -45 27 0
43 8 69 34 47 47 45 79 -6 126 -51 47 -52 68 -3 72 28 2 39 8 41 22 2 10 -2
22 -10 27 -16 11 -66 10 -93 0z"/>
<path d="M1020 793 c-65 -45 -68 -94 -10 -149 22 -21 40 -42 40 -46 0 -4 -22
-8 -49 -8 -55 0 -67 -10 -51 -40 22 -41 113 -38 156 5 37 37 33 85 -11 126
-46 44 -47 69 -1 69 23 0 36 6 40 17 16 39 -68 58 -114 26z"/>
<path d="M1293 800 c-68 -21 -132 -132 -119 -208 11 -73 64 -92 130 -47 20 14
39 25 41 25 3 0 5 -11 5 -25 0 -21 5 -25 28 -25 15 0 32 4 38 8 14 10 45 254
33 266 -12 14 -118 17 -156 6z"/>
<path d="M1548 803 c-20 -5 -21 -7 -44 -156 -19 -121 -14 -138 32 -121 22 7
31 23 54 93 25 78 54 121 82 121 6 0 7 -40 3 -110 l-8 -110 31 0 c41 0 48 15
63 137 11 92 10 105 -5 127 -21 33 -61 34 -109 2 -37 -26 -47 -24 -47 6 0 18
-15 21 -52 11z"/>
<path d="M2185 801 c-17 -7 -22 -26 -37 -137 -9 -71 -13 -133 -8 -138 5 -4 21
-4 36 1 24 8 33 21 54 85 30 89 44 108 76 108 16 0 28 10 39 31 29 55 1 76
-57 42 -28 -17 -30 -17 -42 0 -14 18 -29 20 -61 8z"/>
<path d="M2476 800 c-41 -13 -93 -66 -112 -117 -19 -48 -15 -123 7 -149 17
-21 82 -13 120 15 36 27 39 26 39 -4 0 -21 5 -25 29 -25 17 0 33 6 38 13 9 14
32 173 32 228 1 30 -3 38 -21 43 -32 8 -97 6 -132 -4z"/>
</g>
</svg>
