<?xml version="1.0" encoding="UTF-8"?>
<svg version="1.1" xmlns="http://www.w3.org/2000/svg" width="60" height="67">
<path d="M0 0 C19.8 0 39.6 0 60 0 C60 22.11 60 44.22 60 67 C40.2 67 20.4 67 0 67 C0 44.89 0 22.78 0 0 Z " fill="#659BD2" transform="translate(0,0)"/>
<path d="M0 0 C0 16.5 0 33 0 50 C-23.34735104 51.41499097 -38.19592046 51.17774129 -57 36 C-57.66 35.01 -58.32 34.02 -59 33 C-57.42953257 31.93903537 -55.84305483 30.90173765 -54.25 29.875 C-53.36828125 29.29492188 -52.4865625 28.71484375 -51.578125 28.1171875 C-49 27 -49 27 -46.86328125 27.66015625 C-45.16258021 28.88309222 -43.544037 30.21825476 -41.9375 31.5625 C-37.16547447 35.52226586 -33.00246082 35.33246949 -27.01953125 35.2890625 C-21.89884867 34.79885485 -18.97228575 32.65417515 -15.0625 29.375 C-13.79618417 28.02585164 -13.79618417 28.02585164 -14 26 C-16.76605639 24.28322447 -16.76605639 24.28322447 -20 23 C-22.26838037 23.63359102 -22.26838037 23.63359102 -24 25 C-27.20173254 26.60086627 -30.52577059 26.49917089 -34 26 C-36.8100346 24.20636089 -38.50940468 22.98119065 -40 20 C-40.39447548 15.81855989 -40.45035186 13.69053952 -38.125 10.125 C-35.16241367 7.16241367 -34.43510167 7.02807108 -30.125 6.75 C-26.40152196 6.77016324 -24.88777469 7.62789936 -22 10 C-19.03409141 9.55445565 -16.75025416 8.43488015 -14.1796875 6.93359375 C-13.47972656 6.53076172 -12.77976563 6.12792969 -12.05859375 5.71289062 C-11.33800781 5.29201172 -10.61742187 4.87113281 -9.875 4.4375 C-8.43715913 3.59897157 -6.99715167 2.76414382 -5.5546875 1.93359375 C-4.92030762 1.56290771 -4.28592773 1.19222168 -3.63232422 0.81030273 C-2 0 -2 0 0 0 Z " fill="#03589D" transform="translate(60,17)"/>
<path d="M0 0 C3.85097389 1.8351733 6.84265946 3.97333708 9.64453125 7.2421875 C8.64453125 10.2421875 8.64453125 10.2421875 6.33203125 11.9921875 C3.64453125 13.2421875 3.64453125 13.2421875 1.51953125 13.0546875 C-0.35546875 12.2421875 -0.35546875 12.2421875 -3.35546875 10.2421875 C-8.26034218 9.68841147 -10.25526263 9.48579579 -14.35546875 12.3046875 C-16.88522008 16.02025976 -17.14328155 17.8304358 -16.35546875 22.2421875 C-14.36406036 25.16706857 -12.94317517 26.91207032 -9.3828125 27.65234375 C-6.07083238 27.79472794 -3.89445242 27.65435149 -1.23046875 25.6171875 C-0.61171875 25.1634375 0.00703125 24.7096875 0.64453125 24.2421875 C4.23837743 25.0489693 6.57415998 26.19527332 9.64453125 28.2421875 C8.08442547 32.45447311 5.15999195 34.58765595 1.64453125 37.2421875 C-3.70279431 39.02462935 -10.1093001 39.26575419 -15.5234375 37.55859375 C-20.76390692 34.77061774 -24.26764317 30.67684476 -26.66796875 25.3046875 C-28.12568224 18.81123652 -27.70962868 13.02400863 -24.35546875 7.2421875 C-17.69189337 -0.049116 -9.75266682 -3.1376739 0 0 Z " fill="#FCFCFD" transform="translate(37.35546875,14.7578125)"/>
<path d="M0 0 C1.70070104 1.22293597 3.31924425 2.55809851 4.92578125 3.90234375 C9.69819605 7.86243263 13.86356169 7.67559017 19.84765625 7.625 C25.91952738 7.05084638 29.84863607 3.83624635 33.86328125 -0.66015625 C38.47841237 0.65845264 41.96225737 2.55339812 45.86328125 5.33984375 C41.64155284 9.83958842 36.81329699 12.50375604 31.48828125 15.52734375 C30.555 16.07326172 29.62171875 16.61917969 28.66015625 17.18164062 C27.29503906 17.9618457 27.29503906 17.9618457 25.90234375 18.7578125 C25.07943848 19.22985107 24.2565332 19.70188965 23.40869141 20.18823242 C20.43273725 21.53463332 18.13436286 22.16884946 14.86328125 22.33984375 C11.91894531 21.21582031 11.91894531 21.21582031 8.87890625 19.48046875 C7.77933594 18.85914062 6.67976563 18.2378125 5.546875 17.59765625 C3.84724609 16.60378906 3.84724609 16.60378906 2.11328125 15.58984375 C0.96472656 14.94273438 -0.18382812 14.295625 -1.3671875 13.62890625 C-9.84665923 8.77493304 -9.84665923 8.77493304 -12.13671875 5.33984375 C-10.56625132 4.27887912 -8.97977358 3.2415814 -7.38671875 2.21484375 C-6.505 1.63476562 -5.62328125 1.0546875 -4.71484375 0.45703125 C-2.13671875 -0.66015625 -2.13671875 -0.66015625 0 0 Z " fill="#034283" transform="translate(13.13671875,44.66015625)"/>
<path d="M0 0 C14 8 14 8 28 16 C28 16.33 28 16.66 28 17 C18.76 17 9.52 17 0 17 C0 11.39 0 5.78 0 0 Z " fill="#FBFCFD" transform="translate(0,50)"/>
<path d="M0 0 C9.24 0 18.48 0 28 0 C28 5.61 28 11.22 28 17 C18.66666667 11.66666667 9.33333333 6.33333333 0 1 C0 0.67 0 0.34 0 0 Z " fill="#FDFDFE" transform="translate(32,0)"/>
<path d="M0 0 C9.24 0 18.48 0 28 0 C24.97737657 2.26696758 22.10430514 4.19665005 18.8671875 6.1015625 C17.89652344 6.67390625 16.92585938 7.24625 15.92578125 7.8359375 C14.91902344 8.42632812 13.91226562 9.01671875 12.875 9.625 C11.35326172 10.5221875 11.35326172 10.5221875 9.80078125 11.4375 C2.32342575 15.83828712 2.32342575 15.83828712 0 17 C0 11.39 0 5.78 0 0 Z " fill="#FDFDFE" transform="translate(0,0)"/>
<path d="M0 0 C0.33 0 0.66 0 1 0 C1 5.61 1 11.22 1 17 C-8.24 17 -17.48 17 -27 17 C-24.02311405 14.76733554 -21.30054415 12.95432331 -18.0859375 11.15234375 C-17.16039062 10.62962891 -16.23484375 10.10691406 -15.28125 9.56835938 C-13.33614137 8.47685016 -11.39082721 7.38570712 -9.4453125 6.29492188 C-8.52234375 5.77349609 -7.599375 5.25207031 -6.6484375 4.71484375 C-5.80458496 4.24167725 -4.96073242 3.76851074 -4.09130859 3.28100586 C-1.88703939 2.04279352 -1.88703939 2.04279352 0 0 Z " fill="#FBFCFD" transform="translate(59,50)"/>
<path d="M0 0 C1.65 1.65 3.3 3.3 5 5 C-0.61 8.3 -6.22 11.6 -12 15 C-14 13 -14 13 -14.375 9.6875 C-13.94452982 5.45454323 -12.96639625 3.96639625 -10 1 C-6.84203893 -0.57898053 -3.39329364 -0.81928171 0 0 Z " fill="#659AD2" transform="translate(34,24)"/>
<path d="M0 0 C2.8125 1.5625 2.8125 1.5625 5 3 C3.25 6.875 3.25 6.875 1 8 C-6.22330097 8.46601942 -6.22330097 8.46601942 -9.5 6.5 C-9.995 6.005 -10.49 5.51 -11 5 C-10 2 -10 2 -7.75 0.25 C-4.48000456 -1.23636156 -3.34986417 -1.17245246 0 0 Z " fill="#013F81" transform="translate(33,35)"/>
<path d="M0 0 C0.99 0 1.98 0 3 0 C3 0.66 3 1.32 3 2 C3.66 2 4.32 2 5 2 C5 2.99 5 3.98 5 5 C4.34 5 3.68 5 3 5 C3 5.66 3 6.32 3 7 C2.34 7 1.68 7 1 7 C1 6.34 1 5.68 1 5 C0.01 5 -0.98 5 -2 5 C-2 4.01 -2 3.02 -2 2 C-1.34 2 -0.68 2 0 2 C0 1.34 0 0.68 0 0 Z " fill="#CADCEA" transform="translate(45,30)"/>
<path d="M0 0 C0.66 0 1.32 0 2 0 C2 0.99 2 1.98 2 3 C2.66 3 3.32 3 4 3 C4 3.66 4 4.32 4 5 C3.34 5 2.68 5 2 5 C2 5.66 2 6.32 2 7 C1.34 7 0.68 7 0 7 C0 6.34 0 5.68 0 5 C-0.66 5 -1.32 5 -2 5 C-2 4.01 -2 3.02 -2 2 C-1.34 2 -0.68 2 0 2 C0 1.34 0 0.68 0 0 Z " fill="#E6EFF5" transform="translate(54,30)"/>
</svg>
