<?xml version="1.0" standalone="no"?>
<!DOCTYPE svg PUBLIC "-//W3C//DTD SVG 20010904//EN"
 "http://www.w3.org/TR/2001/REC-SVG-20010904/DTD/svg10.dtd">
<svg version="1.0" xmlns="http://www.w3.org/2000/svg"
 width="50.000000pt" height="50.000000pt" viewBox="0 0 50.000000 50.000000"
 preserveAspectRatio="xMidYMid meet">
<metadata>
Created by potrace 1.16, written by Peter Selinger 2001-2019
</metadata>
<g transform="translate(0.000000,50.000000) scale(0.100000,-0.100000)"
fill="#000000" stroke="none">
<path d="M290 405 c0 -18 5 -25 20 -25 22 0 27 15 8 23 -10 4 -10 6 0 6 20 2
13 21 -8 21 -15 0 -20 -7 -20 -25z"/>
<path d="M340 415 c0 -8 6 -15 13 -15 8 0 7 -4 -3 -10 -12 -8 -11 -10 8 -10
17 0 22 6 22 25 0 18 -5 25 -20 25 -11 0 -20 -7 -20 -15z"/>
<path d="M390 415 c0 -8 6 -15 13 -15 8 0 7 -4 -3 -10 -12 -8 -11 -10 7 -10
18 0 22 5 21 25 -3 27 -38 37 -38 10z"/>
<path d="M244 263 c11 -162 11 -161 67 -177 28 -9 55 -13 62 -11 7 2 31 9 53
15 l41 10 7 108 c4 59 10 117 13 130 5 22 5 22 -122 22 l-128 0 7 -97z m171
57 c-3 -5 1 -10 9 -10 9 0 16 -9 16 -20 0 -11 5 -20 10 -20 7 0 8 -6 2 -16 -5
-9 -7 -25 -5 -35 3 -12 0 -19 -8 -19 -12 0 -12 -2 0 -9 9 -6 10 -11 2 -15 -16
-10 -14 -39 2 -30 6 4 9 4 5 -1 -12 -13 -115 -17 -138 -5 -26 14 -27 50 -1 50
10 0 21 -7 25 -15 3 -8 15 -15 26 -15 14 0 19 4 14 12 -5 8 -2 9 9 5 11 -4 17
-1 17 9 0 8 -4 12 -10 9 -5 -3 -10 -1 -10 4 0 6 -20 11 -45 11 -32 0 -45 4
-45 14 0 10 13 16 37 18 56 5 55 28 -1 28 -39 0 -46 3 -46 20 0 17 7 20 43 22
23 0 50 1 60 0 9 -1 17 3 17 8 0 6 5 10 11 10 5 0 7 -4 4 -10z m-40 -210 c3
-5 1 -10 -4 -10 -6 0 -11 5 -11 10 0 6 2 10 4 10 3 0 8 -4 11 -10z"/>
<path d="M380 260 c0 -5 5 -10 11 -10 5 0 7 5 4 10 -3 6 -8 10 -11 10 -2 0 -4
-4 -4 -10z"/>
</g>
</svg>
