<svg id="SvgjsSvg1001" width="288" height="288" xmlns="http://www.w3.org/2000/svg" version="1.1" xmlns:xlink="http://www.w3.org/1999/xlink" xmlns:svgjs="http://svgjs.com/svgjs"><defs id="SvgjsDefs1002"></defs><g id="SvgjsG1008"><svg xmlns="http://www.w3.org/2000/svg" version="1.0" viewBox="-3 -3 764 335" width="288" height="288"><rect width="764" height="335" x="-3" y="-3" fill="#2196f3" stroke-width="0" rx="0" class="color2196f3 svgShape"></rect><g transform="matrix(.1 0 0 -.1 0 329)" fill="#ffffff" class="color000 svgShape"><path d="M0 1645 l0 -1645 3790 0 3790 0 0 1645 0 1645 -3790 0 -3790 0 0 -1645z m1491 910 c56 -19 202 -133 195 -152 -4 -8 3 -13 17 -13 34 -1 65 -22 103 -70 37 -46 43 -63 19 -54 -13 5 -68 -10 -84 -22 -11 -9 23 -31 40 -27 17 5 20 2 17 -18 -2 -19 2 -25 20 -27 12 -2 22 -8 22 -14 0 -5 -6 -8 -14 -5 -8 3 -31 1 -50 -4 -37 -10 -67 -50 -65 -86 0 -12 5 -8 16 13 8 17 24 36 35 43 20 12 21 11 15 -16 -3 -15 -8 -46 -11 -68 l-6 -40 15 30 c8 17 14 38 15 47 0 16 35 48 54 48 5 0 7 -36 4 -80 -3 -45 -2 -77 2 -73 18 20 30 83 30 159 l0 83 33 -6 c21 -3 46 1 64 11 33 16 80 82 68 94 -3 4 -10 0 -15 -8 -16 -30 -46 -57 -77 -74 -37 -18 -53 -20 -53 -6 0 6 8 10 17 10 9 0 38 23 64 50 43 46 50 50 68 38 12 -7 31 -41 43 -78 19 -54 23 -87 23 -200 0 -134 0 -136 -34 -200 -18 -36 -49 -80 -69 -98 -39 -35 -114 -62 -174 -62 -55 0 -185 28 -237 51 -24 10 -45 19 -47 19 -2 0 -4 -17 -4 -37 0 -21 -5 -55 -11 -76 -8 -31 -7 -43 6 -63 18 -27 72 -34 81 -9 3 8 14 17 25 20 10 4 22 18 25 33 9 36 14 43 24 37 13 -8 -7 -56 -37 -87 -53 -56 -107 -47 -192 31 -24 22 -60 46 -80 52 -20 7 -47 20 -60 30 -29 23 -42 24 -35 4 4 -9 26 -27 50 -41 23 -14 41 -31 39 -37 -2 -7 -18 -58 -35 -114 -17 -56 -40 -113 -51 -127 -10 -13 -19 -28 -19 -33 -1 -15 -64 -79 -122 -122 -31 -23 -64 -53 -72 -66 -44 -67 -103 -48 -160 49 -20 33 -36 68 -36 76 0 24 91 81 107 68 10 -8 13 3 13 53 l0 64 -19 -31 c-16 -26 -27 -32 -68 -37 -26 -3 -76 -3 -111 0 -59 6 -63 7 -71 37 -8 25 -9 17 -10 -45 -1 -66 -5 -82 -28 -115 -15 -22 -29 -59 -32 -84 -5 -39 -10 -46 -31 -49 -45 -6 -160 20 -186 43 -24 21 -24 22 -9 76 23 85 19 108 -34 211 -27 53 -56 120 -65 149 -28 93 -17 300 15 300 5 0 42 31 83 68 75 69 166 122 207 122 20 0 21 -1 5 -22 -30 -41 -56 -109 -56 -145 0 -27 11 -50 43 -92 40 -54 42 -59 40 -121 -2 -58 0 -67 25 -93 40 -42 75 -57 135 -57 43 0 68 8 129 40 42 22 102 46 134 55 31 8 58 16 60 18 2 1 10 29 19 62 19 74 19 119 0 237 -8 51 -17 115 -21 143 -5 40 -8 46 -16 31 -10 -17 -9 -48 8 -284 8 -110 -10 -157 -64 -167 -20 -4 -81 -29 -136 -56 -81 -40 -107 -48 -132 -43 -40 8 -104 59 -104 83 0 19 68 159 96 199 9 12 12 22 8 22 -5 0 -18 -12 -29 -27 -11 -15 -31 -40 -45 -55 l-25 -28 -38 51 c-20 29 -40 63 -43 76 -10 40 48 139 154 263 144 168 152 174 262 194 50 10 104 16 118 15 42 -5 50 6 51 72 0 34 3 65 6 68 29 29 189 39 256 16z m1001 -380 c3 -3 -2 -36 -12 -73 -10 -37 -21 -91 -25 -119 l-7 -53 209 0 c114 -1 227 -5 251 -9 53 -10 90 -43 98 -87 6 -32 1 -60 -51 -294 -13 -58 -33 -150 -44 -205 -12 -55 -24 -110 -26 -122 -5 -22 -10 -23 -110 -23 l-104 0 5 33 c3 17 16 77 29 132 13 55 36 153 51 218 l27 119 -20 26 -20 27 -170 3 -171 2 -6 -37 c-4 -21 -18 -83 -30 -138 -29 -123 -76 -332 -82 -362 -4 -22 -9 -23 -109 -23 l-104 0 5 33 c3 17 10 46 15 62 5 17 18 73 29 125 10 52 35 165 55 250 20 85 46 205 60 265 13 61 28 133 35 160 6 28 13 60 16 73 4 21 9 22 103 22 54 0 100 -2 103 -5z m2348 -11 c0 -9 -7 -44 -16 -78 -9 -33 -24 -101 -34 -151 -26 -126 -116 -534 -140 -630 -11 -45 -20 -88 -20 -98 0 -16 -26 -17 -356 -17 l-356 0 -34 34 c-39 39 -43 70 -19 176 69 312 95 416 112 439 11 14 41 41 67 59 l48 32 244 0 243 0 12 43 c6 23 18 74 25 112 8 39 17 76 19 83 3 8 33 12 105 12 85 0 100 -2 100 -16z m-974 -267 c34 -31 37 -38 36 -89 0 -30 -10 -91 -21 -134 -19 -71 -31 -126 -89 -406 l-16 -78 -378 0 -378 0 -32 29 c-29 26 -32 34 -32 82 0 59 28 187 52 234 16 33 52 67 97 92 24 13 44 14 120 7 118 -10 271 -10 365 2 l75 9 3 36 c2 30 -2 41 -23 57 -25 20 -38 21 -306 20 -154 0 -282 2 -285 4 -2 3 3 41 12 86 l17 82 374 0 373 0 36 -33z m1731 11 c21 -12 37 -32 47 -60 16 -41 15 -48 -9 -158 -14 -63 -38 -173 -54 -245 -29 -137 -44 -176 -83 -212 -53 -50 -76 -53 -396 -53 -193 0 -310 4 -331 11 -40 14 -75 77 -68 123 3 17 18 94 35 171 78 356 78 356 147 402 22 15 58 30 80 34 22 4 166 7 320 6 244 -2 284 -4 312 -19z m852 13 c27 -6 55 -20 73 -39 38 -37 38 -64 3 -222 -14 -63 -36 -168 -50 -232 -29 -134 -49 -174 -107 -214 l-41 -29 -316 -3 c-342 -3 -356 -1 -393 50 -24 35 -22 85 12 228 10 47 31 141 46 210 17 84 34 137 51 162 27 40 80 76 128 88 42 11 540 11 594 1z m917 -32 c45 -46 47 -80 11 -239 -15 -63 -38 -166 -52 -229 -27 -121 -36 -143 -69 -179 -48 -54 -63 -57 -329 -62 l-249 -5 -13 -38 c-7 -21 -16 -55 -20 -75 -3 -20 -11 -58 -17 -84 l-10 -48 -105 0 c-95 0 -104 2 -99 18 3 9 17 73 31 142 15 69 33 152 41 184 8 33 33 143 55 245 43 202 88 391 96 404 3 5 160 7 349 5 l344 -3 36 -36z m-7029 -367 c7 -21 28 -67 48 -102 38 -67 40 -86 12 -104 -38 -24 -146 61 -163 128 -6 23 0 34 37 72 24 24 46 44 49 44 3 0 10 -17 17 -38z m1096 -187 l2 -100 -82 -3 c-46 -2 -83 0 -83 3 0 10 20 45 37 64 15 18 77 149 88 185 5 18 7 17 21 -14 10 -22 16 -71 17 -135z" fill="#ffffff" class="color000 svgShape"></path><path d="M4214 1753c-48-9-74-55-101-174-37-168-37-171-13-197 21-22 26-22 187-20l167 3 13 50c39 151 71 330 60 337-12 8-275 9-313 1zM3209 1441c-29-29-31-56-5-73 16-11 394-10 400 1 4 5 9 30 12 55l7 46-192 0-193 0-29-29zM5035 1729c-37-30-53-73-80-206-33-172-28-177 208-171 190 4 200 14 243 241 16 89 16 102 3 125l-15 27-165 3c-158 2-167 1-194-19zM5938 1734c-40-21-55-58-82-195-26-129-24-159 13-178 27-15 287-13 330 2 45 16 65 55 96 196 30 137 30 146 5 171-18 18-33 20-177 20-120-1-165-4-185-16zM6797 1733c-7-23-41-174-65-285-11-48-17-90-14-93 10-10 299-5 329 5 47 17 68 56 96 185 32 144 33 159 7 185-18 18-33 20-184 20-148 0-165-2-169-17z" fill="#ffffff" class="color000 svgShape"></path></g></svg></g></svg>