<?xml version="1.0" standalone="no"?>
<!DOCTYPE svg PUBLIC "-//W3C//DTD SVG 20010904//EN"
 "http://www.w3.org/TR/2001/REC-SVG-20010904/DTD/svg10.dtd">
<svg version="1.0" xmlns="http://www.w3.org/2000/svg"
 width="237.000000pt" height="194.000000pt" viewBox="0 0 237.000000 194.000000"
 preserveAspectRatio="xMidYMid meet">

<g transform="translate(0.000000,194.000000) scale(0.100000,-0.100000)"
fill="#000000" stroke="none">
<path d="M467 1786 c-97 -100 -129 -116 -198 -102 -26 5 -36 1 -58 -23 -35
-38 -71 -131 -71 -185 0 -59 38 -128 121 -216 40 -44 80 -98 95 -130 48 -106
46 -104 99 -113 58 -9 128 -2 202 19 29 9 57 13 63 9 5 -3 24 2 42 11 17 9 44
20 58 24 26 7 28 5 45 -48 30 -97 155 -331 202 -380 67 -70 59 -79 -26 -31
-141 79 -232 161 -272 244 -16 33 -29 67 -29 75 0 8 -5 33 -11 55 l-11 40 -24
-30 c-38 -48 -82 -177 -54 -160 6 3 10 0 10 -7 0 -21 72 -105 131 -154 67 -55
171 -108 244 -125 57 -13 61 -19 49 -67 -8 -28 -19 -28 -123 4 -102 30 -174
68 -258 137 l-63 50 -2 76 c-2 74 -2 74 -5 16 -6 -92 36 -287 68 -320 6 -6 6
1 0 18 -6 16 -11 30 -11 32 0 2 37 -14 83 -35 90 -44 218 -80 281 -80 23 0 46
-4 51 -8 12 -8 45 -58 45 -68 0 -3 -51 -4 -112 -2 -110 4 -127 8 -273 62 -25
9 28 -40 110 -101 l60 -45 101 5 c56 2 112 10 124 17 21 11 26 10 42 -10 11
-13 18 -33 16 -44 -3 -18 -12 -22 -58 -27 l-55 -6 45 -1 c25 -1 74 7 110 18
96 29 96 29 92 -35 l-4 -55 47 0 46 0 -2 73 c-2 55 1 73 12 75 11 2 14 -13 14
-70 l0 -73 43 -3 42 -3 0 191 0 191 -42 -3 -43 -3 -3 -72 c-2 -40 -7 -73 -12
-73 -5 0 -10 33 -12 73 l-3 72 -40 0 -40 0 -3 -102 -3 -103 -50 0 c-28 0 -59
5 -70 11 -20 10 -20 11 -2 24 16 13 17 14 1 15 -16 0 -48 46 -48 70 0 5 21 11
48 11 26 1 38 3 27 5 -108 23 -125 37 -125 101 l0 26 23 -19 c27 -25 71 -44
99 -44 17 0 11 7 -24 29 -49 31 -87 86 -70 103 5 5 27 6 48 2 33 -5 43 -13 59
-42 33 -62 119 -69 172 -15 26 25 26 25 62 8 54 -27 161 -31 217 -10 37 14 53
29 89 84 45 68 91 187 101 263 5 36 2 46 -16 63 -21 19 -22 19 -80 -2 -32 -12
-61 -19 -64 -15 -3 3 -6 19 -6 36 0 33 -81 207 -112 242 -18 20 -18 25 -4 86
8 35 24 88 36 118 l21 53 -38 75 c-48 97 -141 196 -198 211 -89 24 -154 9
-227 -50 -26 -22 -51 -39 -57 -39 -6 0 -34 14 -63 31 -197 117 -384 189 -491
189 -35 0 -46 -8 -130 -94z m340 14 c43 -16 155 -70 248 -120 238 -127 260
-150 315 -337 18 -59 24 -70 35 -60 11 10 11 15 -1 28 -11 13 -33 88 -59 207
-5 19 -90 91 -144 122 -14 7 -12 13 13 39 38 40 105 65 148 57 18 -4 47 -7 64
-7 25 1 41 -9 78 -48 56 -60 122 -162 131 -200 4 -18 -5 -62 -25 -125 -24 -74
-30 -107 -25 -137 4 -22 11 -36 17 -33 5 3 12 -4 15 -16 3 -12 23 -58 44 -102
48 -99 50 -116 9 -110 -18 3 -30 0 -30 -7 0 -6 5 -11 11 -11 6 0 9 -8 7 -17
-2 -10 3 -23 12 -30 8 -6 12 -15 7 -19 -4 -4 -13 -2 -19 4 -18 18 -85 15 -92
-3 -4 -13 -2 -13 14 -5 34 18 44 12 25 -16 -21 -32 -15 -41 10 -14 19 21 55
27 55 9 0 -6 -5 -19 -11 -31 -6 -11 -8 -22 -5 -25 3 -3 18 21 33 53 25 52 32
59 59 59 16 1 44 7 62 14 62 26 75 -3 48 -107 -18 -66 -58 -144 -103 -199 -36
-44 -94 -73 -146 -73 -47 0 -148 51 -203 104 -53 51 -54 52 -54 33 0 -7 -12
-29 -26 -48 -15 -21 -24 -43 -21 -57 6 -33 -19 -9 -45 42 -11 23 -36 58 -54
79 -38 42 -45 88 -19 138 15 29 15 29 -12 40 -110 42 -117 53 -111 194 l4 106
-41 -7 c-47 -7 -228 -61 -335 -99 -79 -27 -104 -31 -212 -27 l-66 2 -22 66
c-18 54 -36 81 -97 148 -129 140 -154 231 -90 336 l33 55 84 -1 c69 -2 99 -8
163 -33 43 -17 81 -31 85 -31 14 0 -78 49 -129 67 l-52 20 32 22 c17 12 52 49
77 83 61 78 86 89 170 72 35 -8 99 -27 141 -44z m623 -1220 c0 -16 -48 -42
-67 -37 -14 4 -13 5 4 6 13 0 28 10 35 21 14 21 28 27 28 10z m87 -316 c-3 -3
-12 -4 -19 -1 -8 3 -5 6 6 6 11 1 17 -2 13 -5z"/>
<path d="M1430 1647 c0 -7 12 -30 27 -52 16 -22 36 -56 45 -75 l18 -35 -6 35
c-6 32 -67 140 -79 140 -3 0 -5 -6 -5 -13z"/>
<path d="M1105 1560 c-3 -5 -1 -10 4 -10 6 0 11 5 11 10 0 6 -2 10 -4 10 -3 0
-8 -4 -11 -10z"/>
<path d="M964 1471 c3 -5 34 -12 68 -16 35 -3 77 -12 93 -19 l30 -13 -42 -6
c-55 -9 -66 -27 -16 -27 64 0 83 -11 120 -64 27 -39 34 -45 29 -24 -8 38 -42
109 -63 136 -14 17 -35 25 -83 32 -83 12 -143 13 -136 1z"/>
<path d="M1378 1109 c-10 -5 -18 -17 -18 -26 0 -15 2 -15 18 0 10 10 24 17 30
17 6 0 14 5 17 10 8 13 -25 12 -47 -1z"/>
<path d="M1413 999 c-32 -9 -54 -29 -32 -29 7 0 10 -11 7 -30 -4 -26 -2 -29
15 -24 10 3 40 9 65 14 26 4 41 8 35 9 -7 0 -13 14 -13 30 0 40 -18 47 -77 30z
m21 -48 c3 -5 -1 -12 -10 -15 -22 -9 -24 -8 -24 9 0 16 25 21 34 6z"/>
<path d="M1820 900 c-8 -5 -33 -10 -55 -10 -33 -1 -37 -3 -22 -11 21 -13 71
-3 88 17 13 16 10 18 -11 4z"/>
<path d="M1316 705 c-7 -19 -5 -19 30 0 l29 15 -26 0 c-15 0 -29 -7 -33 -15z"/>
<path d="M1580 280 l0 -190 40 0 40 0 0 190 0 190 -40 0 -40 0 0 -190z"/>
<path d="M1695 423 c4 -27 19 -111 34 -188 l27 -140 51 -3 c42 -2 52 0 57 15
5 19 66 345 66 357 0 12 -81 6 -85 -6 -2 -7 -9 -46 -15 -85 -7 -40 -15 -73
-20 -73 -4 0 -13 34 -19 76 -6 42 -14 80 -17 85 -3 5 -23 9 -46 9 l-40 0 7
-47z"/>
<path d="M1967 464 c-4 -4 -7 -90 -7 -191 l0 -183 84 0 c91 0 95 3 96 68 0 20
-5 22 -50 22 -47 0 -50 2 -50 25 0 18 5 25 20 25 17 0 20 7 20 50 0 43 -3 50
-20 50 -13 0 -20 7 -20 19 0 17 8 20 48 23 l47 3 0 45 0 45 -80 3 c-45 1 -84
0 -88 -4z"/>
</g>
</svg>
