<?xml version="1.0" standalone="no"?>
<!DOCTYPE svg PUBLIC "-//W3C//DTD SVG 20010904//EN"
 "http://www.w3.org/TR/2001/REC-SVG-20010904/DTD/svg10.dtd">
<svg version="1.0" xmlns="http://www.w3.org/2000/svg"
 width="50.000000pt" height="50.000000pt" viewBox="0 0 50.000000 50.000000"
 preserveAspectRatio="xMidYMid meet">
<metadata>
Created by potrace 1.16, written by Peter Selinger 2001-2019
</metadata>
<g transform="translate(0.000000,50.000000) scale(0.100000,-0.100000)"
fill="#000000" stroke="none">
<path d="M110 465 c0 -35 20 -51 20 -17 1 16 1 16 14 0 20 -26 26 -22 26 17 0
35 -13 47 -24 23 -5 -10 -7 -10 -12 0 -11 24 -24 12 -24 -23z"/>
<path d="M180 490 c0 -5 5 -10 10 -10 6 0 10 -11 10 -25 0 -14 5 -25 10 -25 6
0 10 9 10 19 0 11 5 23 10 26 20 12 9 25 -20 25 -16 0 -30 -4 -30 -10z"/>
<path d="M250 472 c0 -38 8 -44 36 -25 22 14 24 14 24 -1 0 -9 5 -16 10 -16 6
0 10 16 10 35 0 24 -5 35 -15 35 -8 0 -15 -5 -15 -12 0 -9 -3 -9 -12 0 -21 21
-38 14 -38 -16z"/>
<path d="M340 465 c0 -31 3 -35 25 -35 27 0 34 15 10 24 -8 3 -15 15 -15 26 0
11 -4 20 -10 20 -5 0 -10 -16 -10 -35z"/>
<path d="M80 388 c0 -7 7 -85 15 -173 8 -88 15 -163 15 -166 0 -4 32 -15 70
-24 66 -16 74 -16 140 0 39 9 70 20 70 24 0 3 7 78 15 166 8 88 15 166 15 173
0 9 -41 12 -170 12 -129 0 -170 -3 -170 -12z m301 -46 c-5 -10 -7 -37 -4 -60
4 -29 2 -42 -6 -42 -9 0 -11 -18 -7 -62 4 -48 3 -56 -4 -33 -8 25 -9 21 -5
-22 2 -29 3 -53 2 -53 -1 0 -24 -7 -51 -15 -39 -12 -47 -12 -43 -1 4 9 -13 18
-54 30 l-59 16 0 40 c0 36 3 40 25 40 18 0 25 -5 25 -19 0 -19 18 -31 46 -31
8 0 14 10 14 24 0 18 7 26 23 29 12 2 -13 5 -56 6 -87 1 -84 -2 -90 84 l-4 57
59 0 c43 0 60 4 64 15 5 11 23 15 70 15 59 0 64 -2 55 -18z"/>
<path d="M190 273 c1 -35 62 -44 68 -10 3 14 -4 17 -32 17 -20 0 -36 -3 -36
-7z"/>
<path d="M275 150 c-3 -5 -1 -10 4 -10 6 0 11 5 11 10 0 6 -2 10 -4 10 -3 0
-8 -4 -11 -10z"/>
<path d="M318 83 c7 -3 16 -2 19 1 4 3 -2 6 -13 5 -11 0 -14 -3 -6 -6z"/>
</g>
</svg>
