<?xml version="1.0" encoding="UTF-8"?>
<svg xmlns="http://www.w3.org/2000/svg" xmlns:xlink="http://www.w3.org/1999/xlink" width="89pt" height="50pt" viewBox="0 0 89 50" version="1.1">
<g id="surface1">
<path style=" stroke:none;fill-rule:nonzero;fill:rgb(0%,0%,0%);fill-opacity:1;" d="M 67.757812 7.113281 C 64.910156 7.855469 62.269531 9.941406 61.082031 12.441406 C 60.195312 14.34375 59.984375 17.769531 60.636719 20 C 61.707031 23.78125 64.167969 25.980469 70.339844 28.691406 C 72.386719 29.613281 74.105469 30.59375 74.789062 31.25 C 75.796875 32.203125 75.945312 32.53125 75.945312 33.71875 C 75.945312 34.730469 75.769531 35.296875 75.203125 35.953125 C 74.136719 37.230469 73.039062 37.589844 70.488281 37.441406 C 68.589844 37.351562 68.085938 37.203125 66.988281 36.457031 C 66.304688 35.953125 65.296875 35 64.792969 34.316406 L 63.84375 33.09375 L 61.082031 34.730469 C 59.539062 35.65625 58.234375 36.457031 58.148438 36.519531 C 57.851562 36.785156 59.246094 38.808594 60.785156 40.296875 C 63.664062 43.035156 66.660156 44.136719 71.199219 44.167969 C 76.628906 44.195312 80.25 42.351562 82.175781 38.570312 C 83.15625 36.636719 83.214844 36.339844 83.214844 33.660156 C 83.214844 31.160156 83.097656 30.566406 82.382812 29.019531 C 81.050781 26.160156 79.238281 24.703125 73.691406 22.023438 C 68.292969 19.40625 67.34375 18.570312 67.34375 16.605469 C 67.34375 15.65625 67.550781 15.207031 68.382812 14.375 C 69.390625 13.363281 69.480469 13.332031 71.257812 13.453125 C 73.007812 13.570312 73.15625 13.660156 74.375 15 L 75.648438 16.429688 L 78.46875 14.582031 L 81.257812 12.738281 L 80.398438 11.457031 C 79.238281 9.792969 77.933594 8.691406 75.945312 7.769531 C 74.613281 7.171875 73.78125 6.992188 71.496094 6.933594 C 69.953125 6.90625 68.261719 6.992188 67.757812 7.113281 Z M 67.757812 7.113281 "/>
<path style=" stroke:none;fill-rule:nonzero;fill:rgb(0%,0%,0%);fill-opacity:1;" d="M 46.515625 21.457031 L 46.429688 35.773438 L 45.449219 36.636719 C 44.648438 37.351562 44.234375 37.5 42.867188 37.5 C 41.472656 37.5 41.117188 37.382812 40.199219 36.578125 C 39.605469 36.042969 38.921875 35.238281 38.683594 34.792969 C 38.449219 34.316406 38.121094 33.929688 37.972656 33.929688 C 37.410156 33.929688 32.335938 37.261719 32.335938 37.617188 C 32.335938 38.304688 34.652344 41.25 35.835938 42.082031 C 38.09375 43.632812 39.902344 44.167969 43.164062 44.136719 C 47.613281 44.136719 50.285156 42.886719 52.183594 39.941406 C 53.875 37.292969 53.992188 36.101562 53.992188 20.894531 L 53.992188 7.144531 L 46.605469 7.144531 Z M 46.515625 21.457031 "/>
</g>
</svg>
