<?xml version="1.0" encoding="UTF-8"?>
<svg version="1.1" xmlns="http://www.w3.org/2000/svg" width="205" height="125">
<path d="M0 0 C67.65 0 135.3 0 205 0 C205 41.25 205 82.5 205 125 C137.35 125 69.7 125 0 125 C0 83.75 0 42.5 0 0 Z " fill="#FDFDFE" transform="translate(0,0)"/>
<path d="M0 0 C15.74487472 -0.738041 15.74487472 -0.738041 23 4 C23.49610224 8.96102235 23.59570096 12.05388671 20.875 16.375 C15.34320214 21.42577196 11.27671576 22.33157969 3.9765625 22.10546875 C3.32429688 22.07066406 2.67203125 22.03585938 2 22 C1.67 24.31 1.34 26.62 1 29 C-0.98 29 -2.96 29 -5 29 C-4.5488507 25.66565404 -4.08775875 22.33275294 -3.625 19 C-3.49867187 18.06542969 -3.37234375 17.13085938 -3.2421875 16.16796875 C-2.47210623 10.66188769 -1.45555432 5.3665655 0 0 Z " fill="#2F313C" transform="translate(105,46)"/>
<path d="M0 0 C15.92938497 -0.55353075 15.92938497 -0.55353075 22 3 C22.90929966 13.55797933 22.90929966 13.55797933 20.83984375 16.83984375 C19.3125 18.125 19.3125 18.125 16 20 C15.236875 20.433125 14.47375 20.86625 13.6875 21.3125 C9.78939712 22.30968911 6.00077902 22.15689329 2 22 C1.67 24.64 1.34 27.28 1 30 C-0.98 30 -2.96 30 -5 30 C-5.37322228 23.4219574 -3.96749151 17.45203736 -2.5 11.0625 C-2.26152344 9.99708984 -2.02304687 8.93167969 -1.77734375 7.83398438 C-1.19149341 5.22109187 -0.59888542 2.60992993 0 0 Z " fill="#2F313C" transform="translate(54,46)"/>
<path d="M0 0 C2.56278699 -0.05420701 5.12441483 -0.09377007 7.6875 -0.125 C8.40873047 -0.14175781 9.12996094 -0.15851563 9.87304688 -0.17578125 C14.02357192 -0.21368559 17.32425126 -0.01006528 21 2 C22.60105604 5.20211208 22.35668408 8.51746635 22 12 C20.27871988 16.8014656 18.55829244 18.79767893 14 21 C10.88671875 21.29296875 10.88671875 21.29296875 7.6875 21.1875 C6.08455078 21.14689453 6.08455078 21.14689453 4.44921875 21.10546875 C3.64097656 21.07066406 2.83273438 21.03585938 2 21 C1.67 23.31 1.34 25.62 1 28 C-0.98 28 -2.96 28 -5 28 C-4.66815916 18.16091922 -2.7863603 9.36994648 0 0 Z " fill="#0E0E0E" transform="translate(162,74)"/>
<path d="M0 0 C2.7302389 -0.1083667 5.45614543 -0.18746694 8.1875 -0.25 C8.95642578 -0.28351563 9.72535156 -0.31703125 10.51757812 -0.3515625 C14.47427646 -0.41948865 16.52900455 -0.27759447 20.015625 1.77734375 C22 4 22 4 22.5625 7.8125 C22.26183127 12.40843636 20.67553242 15.28398276 18 19 C14.5326795 21.39560325 11.37474143 21.20749483 7.25 21.125 C5.49429688 21.09792969 5.49429688 21.09792969 3.703125 21.0703125 C2.81109375 21.04710938 1.9190625 21.02390625 1 21 C1.020625 21.94875 1.04125 22.8975 1.0625 23.875 C1 27 1 27 0 29 C-1.98 29 -3.96 29 -6 29 C-5.03235572 19.13002831 -2.40967219 9.59696284 0 0 Z " fill="#121212" transform="translate(111,74)"/>
<path d="M0 0 C2.31 0 4.62 0 7 0 C6.67 2.64 6.34 5.28 6 8 C7.216875 7.95875 8.43375 7.9175 9.6875 7.875 C13.21894127 7.86245492 15.80003566 8.40001783 19 10 C19.21432579 16.64409958 18.51233701 22.53205867 17 29 C14.69 29 12.38 29 10 29 C10.66 24.05 11.32 19.1 12 14 C9.36 13.67 6.72 13.34 4 13 C3.01 18.28 2.02 23.56 1 29 C-0.98 29 -2.96 29 -5 29 C-4.35963063 22.37386221 -3.29028836 15.95287291 -1.9375 9.4375 C-1.75123047 8.52419922 -1.56496094 7.61089844 -1.37304688 6.66992188 C-0.91891897 4.44585955 -0.461187 2.22260724 0 0 Z " fill="#161616" transform="translate(138,66)"/>
<path d="M0 0 C1.98 0 3.96 0 6 0 C5.67 2.31 5.34 4.62 5 7 C6.175625 6.938125 7.35125 6.87625 8.5625 6.8125 C13.03960301 6.78855827 16.0241888 8.0120944 20 10 C19.88485851 12.04224637 19.75742674 14.08380159 19.625 16.125 C19.55539063 17.26195313 19.48578125 18.39890625 19.4140625 19.5703125 C19.00556124 22.95393616 18.19032431 25.81612441 17 29 C15.02 29 13.04 29 11 29 C11.165 28.236875 11.33 27.47375 11.5 26.6875 C12.16562149 21.77854151 12.07920078 16.94564886 12 12 C9.36 11.67 6.72 11.34 4 11 C3.95101562 11.79664063 3.90203125 12.59328125 3.8515625 13.4140625 C3.10896309 23.93848858 3.10896309 23.93848858 1 29 C-0.98 29 -2.96 29 -5 29 C-4.35299955 19.13324315 -2.12620288 9.6321935 0 0 Z " fill="#2F313C" transform="translate(81,39)"/>
<path d="M0 0 C6.4 -0.36923077 6.4 -0.36923077 9.4375 1.5 C9.953125 1.995 10.46875 2.49 11 3 C10.63662961 9.41954359 10.63662961 9.41954359 7.875 11.9375 C4.43298792 13.20954794 1.64158426 13.21421084 -2 13 C-1.85851011 11.3954444 -1.71164314 9.79136233 -1.5625 8.1875 C-1.48128906 7.29417969 -1.40007812 6.40085937 -1.31640625 5.48046875 C-1 3 -1 3 0 0 Z " fill="#E1E1E1" transform="translate(167,78)"/>
<path d="M0 0 C6.4 -0.36923077 6.4 -0.36923077 9.4375 1.5 C9.953125 1.995 10.46875 2.49 11 3 C10.875 6.3125 10.875 6.3125 10 10 C6.02876223 12.86298537 2.82369337 13.34454953 -2 13 C-1.85769192 11.58297487 -1.71099254 10.1663904 -1.5625 8.75 C-1.48128906 7.96109375 -1.40007812 7.1721875 -1.31640625 6.359375 C-1.02365007 4.17635361 -0.57935581 2.1226818 0 0 Z " fill="#E3E3E3" transform="translate(116,78)"/>
<path d="M0 0 C7.3028169 -0.35915493 7.3028169 -0.35915493 10.0625 1.0625 C11.63867133 4.31992076 10.9695991 6.60640315 10 10 C7.14929605 12.52490921 5.48970099 12.97228108 1.6875 13.1875 C0.3571875 13.0946875 0.3571875 13.0946875 -1 13 C-1.0272415 11.58344207 -1.04650467 10.16672955 -1.0625 8.75 C-1.07410156 7.96109375 -1.08570313 7.1721875 -1.09765625 6.359375 C-1.00385306 4.09308998 -0.63241063 2.1711105 0 0 Z " fill="#EDEDF0" transform="translate(59,50)"/>
<path d="M0 0 C6.28813559 -0.3559322 6.28813559 -0.3559322 9 1 C10.67752669 4.35505337 9.65363227 7.37531195 9 11 C5.17010894 12.80230168 2.21878192 13.19622241 -2 13 C-1.85851011 11.3954444 -1.71164314 9.79136233 -1.5625 8.1875 C-1.48128906 7.29417969 -1.40007812 6.40085937 -1.31640625 5.48046875 C-1 3 -1 3 0 0 Z " fill="#EBECEF" transform="translate(111,50)"/>
<path d="M0 0 C-0.61358142 8.80171974 -2.29549385 17.35954742 -4 26 C-2.02 26 -0.04 26 2 26 C2.33 25.01 2.66 24.02 3 23 C3 24.32 3 25.64 3 27 C0.36 27 -2.28 27 -5 27 C-6.38950417 17.9682229 -5.46037646 9.94329718 -4 1 C-1 0 -1 0 0 0 Z " fill="#BCBCBC" transform="translate(161,76)"/>
<path d="M0 0 C0.33 0 0.66 0 1 0 C2.37484634 7.97410877 1.36610623 15.06303572 0 23 C-1.58203125 21.609375 -1.58203125 21.609375 -3 19 C-2.9470762 15.68344161 -2.31411638 12.5007225 -1.6875 9.25 C-1.53087891 8.36183594 -1.37425781 7.47367188 -1.21289062 6.55859375 C-0.82441761 4.36901859 -0.41968723 2.18376939 0 0 Z " fill="#DDDEE3" transform="translate(101,49)"/>
<path d="M0 0 C2.475 0.495 2.475 0.495 5 1 C4 7 3 13 2 19 C1.67 19 1.34 19 1 19 C-0.125 13.375 -0.125 13.375 1 10 C1.4017339 4.85056722 1.4017339 4.85056722 0 0 Z " fill="#BABABA" transform="translate(131,76)"/>
<path d="M0 0 C0 1.98 0 3.96 0 6 C-0.99 6.33 -1.98 6.66 -3 7 C-3 5.02 -3 3.04 -3 1 C-1 0 -1 0 0 0 Z " fill="#E6E6E6" transform="translate(161,76)"/>
</svg>
