<?xml version="1.0" standalone="no"?>
<!DOCTYPE svg PUBLIC "-//W3C//DTD SVG 20010904//EN"
 "http://www.w3.org/TR/2001/REC-SVG-20010904/DTD/svg10.dtd">
<svg version="1.0" xmlns="http://www.w3.org/2000/svg"
 width="300.000000pt" height="91.000000pt" viewBox="0 0 300.000000 91.000000"
 preserveAspectRatio="xMidYMid meet">

<g transform="translate(0.000000,91.000000) scale(0.100000,-0.100000)"
fill="#000000" stroke="none">
<path d="M1923 849 l-23 -8 0 -251 0 -250 25 0 25 0 0 128 0 128 35 17 c46 22
88 22 108 -1 14 -15 17 -41 17 -145 l0 -127 25 0 25 0 0 134 c0 128 -1 136
-24 163 -21 24 -31 28 -75 26 -29 0 -62 -8 -76 -17 -13 -9 -27 -16 -29 -16 -3
0 -7 51 -8 114 -3 113 -3 113 -25 105z"/>
<path d="M360 823 c-37 -14 -50 -36 -50 -85 l0 -48 80 0 c64 0 80 -3 80 -15 0
-13 -21 -15 -131 -15 -72 0 -139 -5 -150 -10 -35 -19 -53 -70 -53 -150 1 -115
33 -160 115 -160 28 0 29 1 29 53 0 98 44 127 195 127 53 0 105 4 115 10 25
14 40 63 40 134 0 141 -26 166 -167 165 -48 0 -95 -3 -103 -6z m39 -47 c23
-28 -17 -68 -45 -45 -15 12 -19 41 -7 52 11 12 40 8 52 -7z"/>
<path d="M1733 763 c-8 -3 -13 -23 -13 -50 0 -37 -4 -46 -20 -50 -23 -6 -22
-28 1 -28 11 0 15 -25 17 -125 2 -111 5 -127 24 -147 14 -15 33 -23 55 -23 39
0 44 15 8 24 -32 8 -36 28 -33 161 l3 110 28 0 c18 -1 27 4 27 15 0 11 -9 16
-27 15 -27 0 -28 3 -31 53 -3 51 -9 58 -39 45z"/>
<path d="M1065 658 c-66 -23 -65 -20 -65 -254 0 -201 1 -214 19 -224 11 -5 22
-10 25 -10 3 0 6 43 6 96 0 88 2 96 18 89 71 -30 138 -21 171 21 65 83 45 246
-34 282 -31 14 -99 14 -140 0z m126 -44 c21 -23 24 -35 24 -109 0 -74 -3 -86
-24 -109 -27 -29 -72 -34 -116 -14 -25 11 -25 13 -25 123 0 106 1 113 23 123
41 20 91 14 118 -14z"/>
<path d="M1363 659 c-22 -8 -23 -13 -23 -119 0 -171 25 -207 137 -198 32 3 67
9 77 13 17 8 18 4 14 -44 -6 -62 -20 -78 -86 -100 -36 -12 -48 -21 -43 -30 10
-16 68 -6 109 19 61 37 65 53 70 265 l5 192 -27 5 -26 5 0 -133 0 -133 -30
-16 c-40 -21 -93 -19 -121 4 -22 18 -24 28 -29 149 -5 129 -5 129 -27 121z"/>
<path d="M2295 651 c-43 -25 -65 -63 -72 -121 -7 -63 16 -129 58 -165 39 -32
118 -35 165 -6 94 58 91 246 -6 296 -40 21 -109 19 -145 -4z m110 -21 c51 -19
73 -143 39 -216 -19 -41 -68 -61 -106 -44 -73 34 -87 192 -23 248 29 24 50 27
90 12z"/>
<path d="M2645 657 c-79 -31 -75 -23 -75 -177 l0 -140 25 0 25 0 0 138 0 139
25 11 c40 18 89 14 113 -8 20 -19 22 -30 22 -150 l0 -130 25 0 25 0 0 134 c0
74 -3 142 -6 151 -16 40 -113 58 -179 32z"/>
</g>
</svg>
