<?xml version="1.0" standalone="no"?>
<!DOCTYPE svg PUBLIC "-//W3C//DTD SVG 20010904//EN"
 "http://www.w3.org/TR/2001/REC-SVG-20010904/DTD/svg10.dtd">
<svg version="1.0" xmlns="http://www.w3.org/2000/svg"
 width="50.000000pt" height="50.000000pt" viewBox="0 0 50.000000 50.000000"
 preserveAspectRatio="xMidYMid meet"  width="300" height="300" >
<metadata>
Created by potrace 1.16, written by Peter Selinger 2001-2019
</metadata>
<g transform="translate(0.000000,50.000000) scale(0.100000,-0.100000)"
fill="#000000" stroke="none">
<path d="M0 250 l0 -250 250 0 250 0 0 90 c0 65 -3 90 -12 90 -9 0 -9 3 1 9
12 8 13 21 5 75 -6 36 -7 72 -2 79 4 6 8 45 8 85 l0 72 -250 0 -250 0 0 -250z
m384 104 c20 -19 5 -54 -24 -54 -13 0 -20 -9 -23 -27 -2 -16 -5 0 -6 35 -1 55
1 62 18 62 11 0 27 -7 35 -16z m56 -64 c4 0 12 10 19 23 11 22 11 22 5 -3 -10
-39 -35 -90 -45 -90 -5 0 -4 9 3 19 9 15 9 25 0 46 -15 32 -15 58 0 28 6 -13
14 -23 18 -23z m-154 -6 c4 -15 3 -39 -2 -53 -8 -23 -17 -27 -64 -32 -34 -4
-43 -6 -22 -7 21 -1 32 -7 32 -17 0 -22 -38 -38 -76 -30 -33 6 -34 7 -34 55
l0 50 44 0 c46 0 76 18 76 46 0 26 39 16 46 -12z"/>
<path d="M346 353 c-3 -4 -6 -15 -6 -25 0 -24 33 -21 38 3 3 17 -21 33 -32 22z"/>
</g>
</svg>
