<?xml version="1.0" standalone="no"?>
<!DOCTYPE svg PUBLIC "-//W3C//DTD SVG 20010904//EN"
 "http://www.w3.org/TR/2001/REC-SVG-20010904/DTD/svg10.dtd">
<svg version="1.0" xmlns="http://www.w3.org/2000/svg"
 width="50.000000pt" height="50.000000pt" viewBox="0 0 50.000000 50.000000"
 preserveAspectRatio="xMidYMid meet">
<metadata>
Created by potrace 1.10, written by Peter Selinger 2001-2011
</metadata>
<g transform="translate(0.000000,50.000000) scale(0.100000,-0.100000)"
fill="#000000" stroke="none">
<path d="M98 282 l3 -149 64 -63 65 -64 0 151 0 152 -61 58 c-33 32 -64 59
-67 61 -4 1 -6 -65 -4 -146z m36 76 c-3 -5 2 -8 11 -6 28 5 28 -17 2 -35 -24
-16 -25 -16 -22 16 1 18 -3 39 -9 47 -10 13 -9 13 6 1 10 -7 15 -18 12 -23z
m69 -63 c16 -16 17 -46 1 -45 -5 0 -9 8 -9 17 0 23 -33 29 -41 9 -4 -11 6 -28
30 -51 36 -34 42 -50 28 -72 -12 -19 -57 -26 -69 -11 -15 19 -22 68 -10 75 6
4 7 1 2 -7 -6 -9 -4 -12 7 -8 11 5 14 0 10 -18 -5 -27 22 -44 40 -26 8 8 1 24
-25 56 -39 47 -44 65 -25 84 16 16 43 15 61 -3z m7 -181 c0 -9 -5 -13 -12 -9
-7 4 -5 0 5 -8 13 -11 15 -17 7 -22 -9 -6 -9 -10 1 -17 11 -8 11 -9 -1 -5 -8
2 -14 12 -14 21 1 10 -4 15 -14 14 -24 -4 -21 26 3 34 11 3 21 6 23 7 1 1 2
-6 2 -15z"/>
<path d="M333 370 l-62 -57 -3 -151 c-2 -84 -1 -152 2 -152 3 0 33 29 68 63
l63 63 -3 146 -3 146 -62 -58z m48 -14 c-6 -7 -8 -15 -5 -19 3 -3 2 -41 -2
-84 l-8 -78 -6 50 c-5 32 -3 53 4 58 8 5 7 10 -3 16 -8 5 -10 14 -6 21 4 7 2
16 -4 20 -9 5 -8 11 4 24 19 19 42 11 26 -8z m-48 -36 c-13 -5 -23 -14 -23
-20 0 -6 -4 -8 -10 -5 -15 9 11 34 35 34 18 0 18 -1 -2 -9z m9 -87 c3 -68 5
-78 21 -75 9 2 17 -2 17 -8 0 -5 -13 -10 -30 -10 l-30 0 0 85 c0 107 18 113
22 8z m-43 -10 c-1 -33 -2 -35 -8 -13 -4 14 -6 31 -3 38 8 22 12 13 11 -25z
m20 -93 c5 0 12 -7 15 -16 4 -10 2 -13 -6 -8 -8 5 -9 2 -5 -10 4 -10 3 -15 -3
-11 -6 3 -10 2 -10 -3 0 -6 -6 -12 -13 -15 -11 -4 -12 3 -7 34 4 22 3 42 -1
45 -5 3 -9 13 -9 22 1 12 6 8 16 -10 8 -16 19 -28 23 -28z"/>
<path d="M381 30 c-9 -5 -4 -7 13 -7 29 0 32 2 13 10 -8 3 -20 2 -26 -3z"/>
</g>
</svg>
