<?xml version="1.0" standalone="no"?>
<!DOCTYPE svg PUBLIC "-//W3C//DTD SVG 20010904//EN"
 "http://www.w3.org/TR/2001/REC-SVG-20010904/DTD/svg10.dtd">
<svg version="1.0" xmlns="http://www.w3.org/2000/svg"
 width="376.000000pt" height="199.000000pt" viewBox="0 0 376.000000 199.000000"
 preserveAspectRatio="xMidYMid meet">

<g transform="translate(0.000000,199.000000) scale(0.100000,-0.100000)"
fill="#000000" stroke="none">
<path d="M2814 1945 c-35 -24 -53 -77 -83 -241 -16 -85 -33 -160 -38 -165 -4
-4 -79 -31 -166 -59 -223 -71 -237 -80 -237 -154 0 -56 36 -87 165 -144 l116
-51 79 50 c44 28 80 52 80 53 0 2 -51 22 -112 46 -62 24 -117 47 -122 51 -4 4
64 30 153 59 136 43 162 54 166 73 3 12 16 82 30 156 22 123 30 151 38 140 2
-2 36 -59 77 -126 40 -68 77 -123 82 -123 6 0 78 18 160 41 83 22 152 38 155
36 3 -4 -124 -159 -200 -244 l-19 -22 71 -134 c39 -74 71 -137 71 -139 0 -3
-52 9 -115 27 l-115 33 1 -27 c0 -14 6 -48 12 -76 l12 -50 120 -37 c138 -44
192 -45 231 -7 48 48 43 71 -45 245 -45 87 -80 163 -77 169 2 5 54 69 116 140
132 153 150 179 150 222 0 37 -30 63 -73 63 -15 0 -104 -20 -197 -45 -93 -25
-175 -45 -183 -45 -8 0 -47 55 -88 123 -40 67 -85 134 -100 150 -31 31 -81 36
-115 12z"/>
<path d="M1613 1305 c-31 -13 -63 -59 -63 -89 0 -30 23 -65 51 -76 34 -15 69
-5 69 19 0 14 -6 17 -25 13 -52 -9 -74 49 -34 89 15 15 30 20 50 17 22 -4 29
-1 29 13 0 9 -7 20 -16 23 -21 8 -24 8 -61 -9z"/>
<path d="M905 1233 c-22 -42 -41 -81 -43 -85 -7 -17 34 -7 45 10 13 22 73 19
73 -4 0 -8 9 -14 21 -14 17 0 20 5 15 28 -28 145 -27 142 -49 142 -17 0 -31
-17 -62 -77z m65 2 c0 -16 -6 -25 -15 -25 -18 0 -18 5 -5 31 14 26 20 24 20
-6z"/>
<path d="M1131 1241 c-6 -39 -11 -77 -11 -85 0 -28 28 -17 35 14 5 22 12 30
29 30 35 0 66 28 66 59 0 38 -17 51 -66 51 l-41 0 -12 -69z m82 33 c11 -11 -5
-34 -24 -34 -12 0 -19 7 -19 20 0 19 28 28 43 14z"/>
<path d="M1353 1231 c-24 -43 -43 -81 -43 -85 0 -12 38 -6 43 8 3 7 20 16 38
18 25 4 33 1 37 -14 2 -10 13 -18 24 -18 14 0 18 5 15 18 -3 9 -8 35 -11 57
-14 89 -17 95 -39 95 -17 0 -32 -18 -64 -79z m67 -8 c0 -7 -9 -13 -20 -13 -17
0 -18 3 -8 25 8 19 14 22 20 13 4 -7 8 -19 8 -25z"/>
<path d="M1790 1238 c-6 -40 -13 -79 -15 -85 -3 -7 4 -13 14 -13 14 0 21 10
25 35 7 33 9 35 47 35 l40 0 -7 -35 c-5 -30 -4 -35 14 -35 15 0 20 9 25 43 3
23 9 61 13 85 5 34 4 42 -9 42 -16 0 -27 -20 -27 -51 0 -16 -7 -19 -41 -19
-41 0 -41 0 -37 35 3 28 1 35 -13 35 -14 0 -20 -15 -29 -72z"/>
<path d="M2060 1253 c-25 -127 -28 -113 29 -113 39 0 51 4 51 15 0 10 -10 15
-31 15 -44 0 -37 34 9 38 43 4 44 32 1 32 -24 0 -30 3 -25 16 3 9 6 18 6 20 0
2 13 4 29 4 16 0 31 6 35 15 4 12 -4 15 -44 15 l-49 0 -11 -57z"/>
<path d="M407 1223 c-99 -33 -187 -147 -187 -242 1 -65 27 -115 106 -201 123
-132 144 -161 144 -195 0 -37 -22 -70 -60 -90 -61 -32 -122 -11 -158 54 -13
23 -26 41 -29 41 -20 0 -143 -78 -143 -90 0 -9 15 -40 33 -70 44 -75 103 -105
201 -103 172 2 304 114 323 272 9 79 -15 129 -121 244 -101 109 -136 155 -136
175 0 7 11 24 25 37 18 19 35 25 68 25 39 0 49 -5 81 -41 l37 -40 69 51 c56
42 68 55 61 68 -18 32 -86 91 -123 107 -47 19 -129 18 -191 -2z"/>
<path d="M2690 1159 c-42 -27 -78 -58 -83 -71 -4 -13 -25 -162 -47 -333 -22
-170 -43 -331 -46 -357 l-7 -48 80 0 80 0 24 177 24 178 115 -177 115 -178 99
0 c77 0 96 3 88 12 -5 7 -73 103 -152 212 l-142 199 92 92 93 93 -7 55 c-16
123 -6 125 -151 -37 -71 -80 -130 -144 -132 -143 -1 2 9 84 22 183 14 98 25
182 25 187 0 13 -14 6 -90 -44z"/>
<path d="M994 996 c-126 -31 -245 -143 -279 -259 -10 -38 -85 -553 -85 -590 0
-2 31 -5 69 -6 80 -2 71 -16 92 151 l12 97 51 -26 c131 -66 302 -28 417 94
162 172 137 423 -53 519 -60 30 -152 39 -224 20z m163 -162 c44 -33 66 -70 71
-122 6 -68 -13 -117 -63 -168 -111 -110 -271 -83 -316 53 -27 82 35 202 125
245 53 24 145 20 183 -8z"/>
<path d="M1730 995 c-109 -31 -208 -113 -258 -214 -24 -50 -27 -67 -27 -156 0
-90 3 -104 27 -145 35 -60 73 -94 131 -120 70 -31 145 -36 221 -16 l64 18 6
51 c4 29 10 69 13 91 l6 38 -39 -25 c-134 -89 -288 -20 -288 128 0 87 66 178
149 205 56 19 140 8 171 -21 37 -34 64 -96 64 -149 0 -39 -20 -217 -35 -302
l-4 -28 73 0 73 0 21 177 c26 210 26 215 7 280 -19 63 -88 143 -149 172 -58
29 -156 35 -226 16z"/>
<path d="M2340 979 c-43 -17 -90 -59 -109 -97 -12 -25 -29 -114 -50 -268 -17
-127 -31 -238 -31 -247 0 -14 12 -17 75 -17 71 0 75 1 75 23 0 61 54 425 66
445 12 19 23 22 73 22 l59 0 6 48 c4 26 9 59 12 75 l6 27 -79 -1 c-43 0 -89
-5 -103 -10z"/>
</g>
</svg>
