<?xml version="1.0" standalone="no"?>
<!DOCTYPE svg PUBLIC "-//W3C//DTD SVG 20010904//EN"
 "http://www.w3.org/TR/2001/REC-SVG-20010904/DTD/svg10.dtd">
<svg version="1.0" xmlns="http://www.w3.org/2000/svg"
 width="50.000000pt" height="50.000000pt" viewBox="0 0 50.000000 50.000000"
 preserveAspectRatio="xMidYMid meet">
<metadata>
Created by potrace 1.16, written by Peter Selinger 2001-2019
</metadata>
<g transform="translate(0.000000,50.000000) scale(0.100000,-0.100000)"
fill="#000000" stroke="none">
<path d="M0 250 l0 -250 250 0 250 0 0 250 0 250 -250 0 -250 0 0 -250z m375
27 c6 1 10 -10 11 -26 1 -24 -3 -28 -22 -28 -18 0 -24 5 -24 23 0 17 -4 22
-15 18 -8 -4 -15 -15 -15 -25 0 -10 -4 -19 -10 -19 -5 0 -10 14 -10 30 0 25 4
30 25 30 14 0 25 6 25 13 1 8 5 7 13 -4 7 -9 17 -14 22 -12z m-158 -13 c6 -17
24 -19 21 -2 -2 7 7 14 20 16 19 3 22 -1 22 -27 0 -26 -4 -31 -25 -31 -14 0
-25 6 -26 13 0 10 -2 10 -6 0 -2 -7 -13 -13 -24 -13 -10 0 -19 -6 -19 -12 -1
-9 -5 -8 -13 2 -7 9 -20 14 -31 12 -10 -2 -23 2 -30 8 -8 10 -5 11 14 6 21 -6
22 -5 8 4 -10 6 -18 17 -18 24 0 19 100 19 107 0z"/>
<path d="M180 251 c0 -6 5 -13 10 -16 6 -3 10 1 10 9 0 9 -4 16 -10 16 -5 0
-10 -4 -10 -9z"/>
</g>
</svg>
